<?xml version="1.0" standalone="no"?>
<!DOCTYPE svg PUBLIC "-//W3C//DTD SVG 20010904//EN"
 "http://www.w3.org/TR/2001/REC-SVG-20010904/DTD/svg10.dtd">
<svg version="1.0" xmlns="http://www.w3.org/2000/svg"
 width="850.000000pt" height="380.000000pt" viewBox="0 0 850.000000 380.000000"
 preserveAspectRatio="xMidYMid meet">

<g transform="translate(0.000000,380.000000) scale(0.100000,-0.100000)"
fill="#000000" stroke="none">
<path d="M0 1900 l0 -1900 4250 0 4250 0 0 1900 0 1900 -4250 0 -4250 0 0
-1900z m947 1230 c105 -36 188 -114 240 -226 25 -53 28 -70 28 -164 0 -97 -2
-110 -32 -173 -174 -367 -710 -294 -784 107 -32 172 64 357 227 437 103 51
209 57 321 19z m2518 -21 c330 -61 457 -461 223 -699 -180 -183 -488 -156
-633 55 -169 244 -36 576 255 641 71 16 85 16 155 3z m-1970 -124 c55 -6 175
-38 175 -46 0 -5 -14 -16 -31 -25 -17 -8 -27 -19 -23 -24 12 -12 184 -69 220
-74 16 -2 58 -9 94 -16 36 -7 124 -13 195 -13 72 0 159 6 195 13 36 7 79 14
95 16 38 5 185 55 185 64 0 3 -14 14 -31 24 -17 10 -29 20 -27 22 6 5 231 50
318 63 41 6 86 14 99 18 19 5 23 3 19 -9 -10 -24 -259 -333 -272 -336 -7 -1
-11 17 -12 48 -1 60 -7 67 -37 51 -12 -6 -32 -13 -45 -16 -13 -2 -48 -13 -77
-24 -115 -43 -396 -71 -535 -52 -197 26 -228 31 -280 51 -30 11 -66 22 -80 25
-14 2 -45 14 -68 25 -24 12 -46 19 -49 16 -3 -3 -8 -28 -11 -56 -2 -28 -8 -49
-13 -48 -11 4 -259 335 -259 346 0 6 49 -1 113 -15 61 -13 126 -26 142 -28z
m6645 -30 c0 -20 16 -19 24 0 5 13 23 15 108 13 92 -3 103 -5 106 -22 8 -41
-18 -46 -270 -46 l-238 0 0 35 0 35 135 0 c113 0 135 -2 135 -15z m-590 -36
c7 -11 9 -32 6 -45 l-6 -24 415 0 415 0 0 -30 0 -30 -105 0 c-100 0 -106 1
-114 22 l-8 22 -12 -22 c-12 -22 -12 -22 -311 -22 -279 0 -300 -1 -301 -17 -1
-27 -5 -49 -33 -160 -63 -253 -77 -310 -82 -338 -3 -16 -16 -73 -29 -125 -13
-52 -27 -111 -30 -130 -4 -19 -16 -65 -26 -103 -11 -37 -22 -84 -25 -104 -2
-21 -13 -67 -24 -103 -10 -36 -22 -83 -26 -105 -3 -22 -17 -80 -31 -130 -13
-49 -26 -103 -28 -120 -2 -16 -14 -64 -25 -105 -12 -41 -23 -93 -26 -115 -4
-22 -17 -76 -29 -120 -13 -44 -26 -98 -30 -119 -10 -69 -36 -150 -55 -170 -22
-22 -59 -16 -77 13 -13 21 -12 25 64 326 14 55 27 114 29 130 2 17 15 68 28
115 13 47 24 92 24 100 -1 8 11 58 25 110 15 52 29 109 31 125 6 35 45 195 83
340 14 55 27 109 28 121 1 11 13 67 28 125 14 57 40 163 57 234 46 192 72 298
78 313 3 9 -24 12 -117 12 l-121 0 0 30 0 30 124 0 c121 0 125 1 131 23 4 12
13 32 21 45 19 29 69 30 84 1z m-657 -117 c16 -14 17 -76 17 -1031 0 -904 -2
-1019 -16 -1039 -18 -26 -50 -28 -76 -5 -17 15 -18 61 -18 1038 0 1062 -1
1044 40 1058 17 5 27 1 53 -21z m-453 -92 l0 -30 -104 0 -105 0 -3 -37 c-5
-64 -57 -56 -58 9 l0 27 -107 3 -108 3 -3 28 -3 27 245 0 246 0 0 -30z m-670
-110 l0 -30 -245 0 -245 0 0 30 0 30 245 0 245 0 0 -30z m460 -125 c0 -66 -2
-75 -18 -75 -29 0 -42 21 -42 71 0 63 7 79 36 79 23 0 24 -3 24 -75z m-1130
10 l0 -25 -240 0 -240 0 0 25 0 25 240 0 240 0 0 -25z m1128 -211 c2 -57 0
-73 -12 -77 -27 -11 -46 21 -46 77 0 54 13 79 40 74 11 -3 16 -20 18 -74z
m-4957 2 c46 -13 87 -22 90 -20 6 4 110 -129 172 -221 15 -22 59 -85 98 -140
38 -55 95 -136 125 -180 30 -44 88 -127 130 -185 83 -116 96 -140 83 -154 -5
-6 -9 -26 -9 -46 0 -20 -7 -59 -15 -87 -14 -46 -21 -54 -69 -82 -29 -16 -81
-55 -115 -87 l-62 -57 -77 7 c-42 4 -85 8 -94 9 -9 1 -14 5 -11 10 3 5 0 8 -8
5 -15 -5 -151 179 -329 442 -48 71 -138 198 -241 340 -97 134 -120 260 -61
339 22 30 243 127 293 130 9 1 54 -10 100 -23z m1941 -66 c68 -28 133 -61 145
-73 28 -27 45 -110 33 -158 -17 -69 -34 -106 -89 -183 -31 -44 -82 -116 -113
-160 -32 -45 -82 -117 -112 -161 -30 -44 -85 -123 -123 -176 -37 -53 -92 -131
-121 -172 l-54 -76 -71 -16 c-113 -25 -114 -25 -150 -6 -19 10 -56 36 -84 59
-27 23 -54 42 -60 42 -6 0 -29 20 -51 45 -33 38 -42 57 -51 113 -6 37 -12 75
-12 85 0 9 -5 15 -11 11 -22 -14 18 47 193 291 28 39 86 122 130 185 87 124
105 146 71 87 -25 -43 -27 -51 -11 -42 27 18 69 90 69 122 0 18 3 33 8 33 4 0
29 34 57 75 27 41 55 77 63 80 8 3 10 0 6 -8 -5 -8 -2 -7 9 2 22 18 132 49
174 50 18 1 88 -22 155 -49z m3013 -135 c0 -60 -3 -70 -19 -73 -25 -5 -36 14
-36 70 0 62 8 80 34 76 19 -3 21 -9 21 -73z m5 -201 l0 -75 -27 3 c-27 3 -28
5 -31 69 -3 60 -1 66 20 76 13 6 26 9 31 6 4 -2 7 -38 7 -79z m-5 -199 c0 -60
-3 -70 -19 -73 -25 -5 -36 14 -36 70 0 62 8 80 34 76 19 -3 21 -9 21 -73z m5
-196 c0 -74 -14 -95 -45 -69 -21 17 -20 113 0 134 30 30 45 9 45 -65z m0 -203
c0 -56 -4 -75 -15 -80 -26 -10 -45 22 -45 78 0 54 12 76 42 76 16 0 18 -9 18
-74z m-5 -201 c0 -60 -3 -70 -19 -73 -25 -5 -36 14 -36 70 0 62 8 80 34 76 19
-3 21 -9 21 -73z m-4046 55 c170 -28 311 -165 342 -335 42 -226 -122 -453
-347 -483 -185 -24 -358 69 -437 236 -30 62 -32 75 -32 173 0 101 1 108 37
181 59 117 157 196 280 223 79 17 80 17 157 5z m3591 -190 l0 -30 -245 0 -245
0 0 30 0 30 245 0 245 0 0 -30z m460 -36 l0 -44 105 0 105 0 0 -30 0 -30 -245
0 -245 0 0 30 0 30 114 0 115 0 -6 36 c-5 28 -2 40 11 50 30 21 46 6 46 -42z"/>
<path d="M640 2740 c0 -107 4 -170 10 -170 6 0 10 63 10 170 0 107 -4 170 -10
170 -6 0 -10 -63 -10 -170z"/>
<path d="M922 2833 c33 -86 32 -98 -5 -195 -14 -38 -22 -68 -18 -68 5 0 23 38
40 85 l33 85 -33 85 c-17 47 -35 85 -39 85 -5 0 5 -35 22 -77z"/>
<path d="M752 2878 c-26 -13 -40 -54 -24 -70 8 -8 13 -6 18 7 5 12 3 20 -5 23
-19 6 7 32 33 32 31 0 46 -19 46 -56 0 -24 -13 -48 -50 -92 -27 -33 -50 -63
-50 -66 0 -4 28 -6 62 -4 59 3 62 4 69 33 7 26 6 28 -5 13 -9 -12 -27 -18 -57
-18 l-43 0 51 53 c28 28 53 59 54 67 7 35 -11 68 -42 79 -18 6 -32 11 -33 10
-1 0 -11 -5 -24 -11z"/>
<path d="M3230 2735 c0 -98 3 -175 7 -172 8 8 7 337 -1 345 -3 3 -6 -75 -6
-173z"/>
<path d="M3480 2908 c0 -4 14 -42 30 -85 17 -42 30 -82 30 -88 0 -6 -14 -46
-30 -89 -17 -43 -28 -81 -26 -84 6 -5 11 6 51 107 l25 65 -31 80 c-27 71 -49
113 -49 94z"/>
<path d="M3337 2868 c-56 -43 -46 -204 14 -223 60 -19 94 25 94 121 0 52 -4
67 -24 88 -27 28 -58 33 -84 14z m71 -23 c16 -34 15 -134 -1 -165 -16 -31 -46
-38 -64 -14 -16 22 -18 156 -3 185 15 28 54 24 68 -6z"/>
<path d="M1362 1837 c-25 -13 -42 -38 -67 -102 -15 -38 -17 -39 -30 -21 -11
15 -12 23 -3 33 6 7 8 16 5 19 -3 3 -13 -6 -22 -19 -15 -24 -15 -27 1 -53 l18
-27 31 38 c58 74 103 115 124 115 27 0 71 -42 71 -68 0 -32 -36 -68 -87 -87
-26 -9 -58 -24 -71 -32 -22 -13 -22 -14 -5 -38 21 -29 32 -31 59 -9 18 15 18
15 0 10 -18 -6 -46 9 -46 25 0 4 26 11 57 15 68 8 113 45 113 91 0 41 -35 92
-75 109 -41 17 -44 17 -73 1z"/>
<path d="M1464 1598 c7 -22 -81 -100 -106 -94 -10 2 -18 0 -18 -5 0 -13 94
-109 107 -109 20 0 45 32 40 51 -4 16 -1 18 18 13 34 -8 51 26 31 63 -20 37
-79 103 -72 81z m50 -68 c14 -25 15 -34 6 -45 -17 -20 -24 -19 -57 9 l-28 24
25 21 c32 26 33 26 54 -9z m-58 -45 c35 -54 -11 -87 -56 -40 l-25 26 25 19
c32 25 36 25 56 -5z"/>
<path d="M2870 1753 c0 -5 20 -40 45 -78 25 -38 43 -75 41 -82 -8 -19 4 -16
20 5 15 20 18 36 5 28 -5 -3 -14 1 -21 9 -17 20 15 74 41 68 10 -3 19 -12 21
-20 2 -10 11 -4 27 18 18 25 20 31 7 26 -14 -6 -105 10 -168 29 -10 3 -18 1
-18 -3z m96 -45 c1 -2 -4 -12 -12 -23 -15 -20 -15 -20 -34 5 -11 14 -20 28
-20 32 0 6 58 -7 66 -14z"/>
<path d="M2683 1675 c-41 -18 -65 -56 -67 -106 -1 -55 36 -89 99 -89 24 0 50
-3 59 -6 23 -9 7 -34 -23 -34 l-26 -1 25 -14 c34 -19 33 -19 53 15 21 34 29
27 -88 72 -42 16 -63 31 -72 50 -17 34 -3 74 31 90 38 17 78 -5 132 -74 l48
-61 22 29 23 28 -21 23 c-23 25 -39 23 -18 -2 11 -13 11 -19 -3 -32 -14 -14
-17 -11 -38 36 -22 53 -60 91 -88 91 -9 -1 -30 -7 -48 -15z"/>
<path d="M1954 720 c0 -96 2 -136 3 -87 2 48 2 126 0 175 -1 48 -3 8 -3 -88z"/>
<path d="M2205 873 c4 -10 18 -48 32 -85 l25 -67 -31 -82 c-17 -45 -29 -84
-27 -87 6 -5 11 7 50 105 l24 62 -31 85 c-18 47 -36 86 -41 86 -4 0 -5 -8 -1
-17z"/>
<path d="M2063 853 c-13 -2 -23 -9 -23 -14 0 -6 9 -7 20 -4 19 6 20 2 20 -88
0 -88 -2 -95 -22 -105 -19 -9 -13 -11 37 -11 50 0 56 2 38 11 -22 10 -23 17
-23 115 0 76 -3 103 -12 102 -7 -1 -23 -4 -35 -6z"/>
</g>
</svg>
